<mxfile host="Electron" modified="2024-06-02T18:25:18.788Z" agent="Mozilla/5.0 (Windows NT 10.0; Win64; x64) AppleWebKit/537.36 (KHTML, like Gecko) draw.io/24.4.8 Chrome/124.0.6367.207 Electron/30.0.6 Safari/537.36" etag="uo-vYHrPeg4hDFeFF7r9" version="24.4.8" type="device">
  <diagram name="Page-1" id="O6bcs-abmlyXL-6Mab-k">
    <mxGraphModel dx="1844" dy="967" grid="1" gridSize="10" guides="1" tooltips="1" connect="1" arrows="1" fold="1" page="1" pageScale="1" pageWidth="4681" pageHeight="3300" math="0" shadow="0">
      <root>
        <mxCell id="0" />
        <mxCell id="1" parent="0" />
        <mxCell id="WlCZ4AbD_9wq8jV4FCS_-4" value="" style="rounded=1;whiteSpace=wrap;html=1;fillColor=none;" parent="1" vertex="1">
          <mxGeometry x="880" y="1400" width="680" height="1320" as="geometry" />
        </mxCell>
        <mxCell id="SXCyoP0QDoGg-8MIkyOE-65" value="" style="rounded=1;whiteSpace=wrap;html=1;fillColor=none;" parent="1" vertex="1">
          <mxGeometry x="2800" y="1680" width="200" height="320" as="geometry" />
        </mxCell>
        <mxCell id="SXCyoP0QDoGg-8MIkyOE-48" value="&lt;span style=&quot;color: rgba(0, 0, 0, 0); font-family: monospace; font-size: 0px; text-align: start; text-wrap: nowrap;&quot;&gt;%3CmxGraphModel%3E%3Croot%3E%3CmxCell%20id%3D%220%22%2F%3E%3CmxCell%20id%3D%221%22%20parent%3D%220%22%2F%3E%3CmxCell%20id%3D%222%22%20value%3D%22State%20%3D%3D%20210%22%20style%3D%22text%3Bhtml%3D1%3Balign%3Dcenter%3BverticalAlign%3Dmiddle%3BwhiteSpace%3Dwrap%3Brounded%3D0%3B%22%20vertex%3D%221%22%20parent%3D%221%22%3E%3CmxGeometry%20x%3D%222520%22%20y%3D%221600%22%20width%3D%22120%22%20height%3D%2230%22%20as%3D%22geometry%22%2F%3E%3C%2FmxCell%3E%3C%2Froot%3E%3C%2FmxGraphModel%3E&lt;/span&gt;" style="rounded=1;whiteSpace=wrap;html=1;fillColor=none;" parent="1" vertex="1">
          <mxGeometry x="2480" y="1480" width="1090" height="960" as="geometry" />
        </mxCell>
        <mxCell id="SXCyoP0QDoGg-8MIkyOE-41" value="" style="rounded=1;whiteSpace=wrap;html=1;fillColor=none;" parent="1" vertex="1">
          <mxGeometry x="1780" y="1520" width="600" height="480" as="geometry" />
        </mxCell>
        <mxCell id="SXCyoP0QDoGg-8MIkyOE-23" style="edgeStyle=orthogonalEdgeStyle;rounded=0;orthogonalLoop=1;jettySize=auto;html=1;" parent="1" source="SXCyoP0QDoGg-8MIkyOE-1" target="SXCyoP0QDoGg-8MIkyOE-22" edge="1">
          <mxGeometry relative="1" as="geometry" />
        </mxCell>
        <mxCell id="SXCyoP0QDoGg-8MIkyOE-1" value="&lt;font color=&quot;#ffffff&quot;&gt;Boot&lt;/font&gt;" style="rounded=1;whiteSpace=wrap;html=1;fillColor=#000000;" parent="1" vertex="1">
          <mxGeometry x="920" y="1080" width="120" height="60" as="geometry" />
        </mxCell>
        <mxCell id="SXCyoP0QDoGg-8MIkyOE-106" style="edgeStyle=orthogonalEdgeStyle;rounded=0;orthogonalLoop=1;jettySize=auto;html=1;entryX=1;entryY=0.5;entryDx=0;entryDy=0;" parent="1" source="SXCyoP0QDoGg-8MIkyOE-2" target="SXCyoP0QDoGg-8MIkyOE-87" edge="1">
          <mxGeometry relative="1" as="geometry">
            <Array as="points">
              <mxPoint x="3820" y="1550" />
              <mxPoint x="3820" y="1270" />
            </Array>
          </mxGeometry>
        </mxCell>
        <mxCell id="SXCyoP0QDoGg-8MIkyOE-2" value="RTC" style="rounded=1;whiteSpace=wrap;html=1;" parent="1" vertex="1">
          <mxGeometry x="3600" y="1520" width="120" height="60" as="geometry" />
        </mxCell>
        <mxCell id="SXCyoP0QDoGg-8MIkyOE-10" style="edgeStyle=orthogonalEdgeStyle;rounded=0;orthogonalLoop=1;jettySize=auto;html=1;entryX=0;entryY=0.5;entryDx=0;entryDy=0;" parent="1" source="SXCyoP0QDoGg-8MIkyOE-3" target="SXCyoP0QDoGg-8MIkyOE-9" edge="1">
          <mxGeometry relative="1" as="geometry">
            <Array as="points">
              <mxPoint x="2580" y="1670" />
            </Array>
          </mxGeometry>
        </mxCell>
        <mxCell id="SXCyoP0QDoGg-8MIkyOE-14" style="edgeStyle=orthogonalEdgeStyle;rounded=0;orthogonalLoop=1;jettySize=auto;html=1;entryX=0;entryY=0.5;entryDx=0;entryDy=0;" parent="1" source="SXCyoP0QDoGg-8MIkyOE-3" target="SXCyoP0QDoGg-8MIkyOE-12" edge="1">
          <mxGeometry relative="1" as="geometry">
            <Array as="points">
              <mxPoint x="2580" y="2070" />
            </Array>
          </mxGeometry>
        </mxCell>
        <mxCell id="SXCyoP0QDoGg-8MIkyOE-88" style="edgeStyle=orthogonalEdgeStyle;rounded=0;orthogonalLoop=1;jettySize=auto;html=1;entryX=1;entryY=0.5;entryDx=0;entryDy=0;" parent="1" edge="1">
          <mxGeometry relative="1" as="geometry">
            <mxPoint x="2641" y="1590" as="sourcePoint" />
            <mxPoint x="2641" y="1270" as="targetPoint" />
            <Array as="points">
              <mxPoint x="2741" y="1590" />
              <mxPoint x="2741" y="1270" />
            </Array>
          </mxGeometry>
        </mxCell>
        <mxCell id="SXCyoP0QDoGg-8MIkyOE-3" value="Countdown" style="rounded=1;whiteSpace=wrap;html=1;" parent="1" vertex="1">
          <mxGeometry x="2520" y="1560" width="120" height="60" as="geometry" />
        </mxCell>
        <mxCell id="SXCyoP0QDoGg-8MIkyOE-5" value="&lt;h1&gt;RTC&lt;/h1&gt;&lt;p&gt;The time display will move 3 pixels to the right then back on loop&lt;/p&gt;" style="text;html=1;strokeColor=none;fillColor=none;spacing=5;spacingTop=-20;whiteSpace=wrap;overflow=hidden;rounded=0;" parent="1" vertex="1">
          <mxGeometry x="3600" y="1580" width="120" height="140" as="geometry" />
        </mxCell>
        <mxCell id="SXCyoP0QDoGg-8MIkyOE-37" style="edgeStyle=orthogonalEdgeStyle;rounded=0;orthogonalLoop=1;jettySize=auto;html=1;entryX=0;entryY=0.5;entryDx=0;entryDy=0;" parent="1" source="SXCyoP0QDoGg-8MIkyOE-6" target="SXCyoP0QDoGg-8MIkyOE-84" edge="1">
          <mxGeometry relative="1" as="geometry" />
        </mxCell>
        <mxCell id="WlCZ4AbD_9wq8jV4FCS_-7" style="edgeStyle=orthogonalEdgeStyle;rounded=0;orthogonalLoop=1;jettySize=auto;html=1;entryX=0.5;entryY=0;entryDx=0;entryDy=0;" parent="1" source="SXCyoP0QDoGg-8MIkyOE-6" target="WlCZ4AbD_9wq8jV4FCS_-1" edge="1">
          <mxGeometry relative="1" as="geometry" />
        </mxCell>
        <mxCell id="SXCyoP0QDoGg-8MIkyOE-6" value="Schrack logo" style="rounded=1;whiteSpace=wrap;html=1;" parent="1" vertex="1">
          <mxGeometry x="920" y="1240" width="120" height="60" as="geometry" />
        </mxCell>
        <mxCell id="SXCyoP0QDoGg-8MIkyOE-56" style="edgeStyle=orthogonalEdgeStyle;rounded=0;orthogonalLoop=1;jettySize=auto;html=1;entryX=0;entryY=0.5;entryDx=0;entryDy=0;" parent="1" source="SXCyoP0QDoGg-8MIkyOE-9" target="SXCyoP0QDoGg-8MIkyOE-51" edge="1">
          <mxGeometry relative="1" as="geometry">
            <Array as="points">
              <mxPoint x="2740" y="1750" />
            </Array>
          </mxGeometry>
        </mxCell>
        <mxCell id="SXCyoP0QDoGg-8MIkyOE-9" value="Predefined (cycle (Btn 2))" style="rounded=1;whiteSpace=wrap;html=1;" parent="1" vertex="1">
          <mxGeometry x="2680" y="1640" width="120" height="60" as="geometry" />
        </mxCell>
        <mxCell id="SXCyoP0QDoGg-8MIkyOE-112" style="edgeStyle=orthogonalEdgeStyle;rounded=0;orthogonalLoop=1;jettySize=auto;html=1;" parent="1" source="SXCyoP0QDoGg-8MIkyOE-12" edge="1">
          <mxGeometry relative="1" as="geometry">
            <mxPoint x="3120" y="1710" as="targetPoint" />
            <Array as="points">
              <mxPoint x="2740" y="2020" />
              <mxPoint x="3060" y="2020" />
              <mxPoint x="3060" y="1710" />
            </Array>
          </mxGeometry>
        </mxCell>
        <mxCell id="SXCyoP0QDoGg-8MIkyOE-120" style="edgeStyle=orthogonalEdgeStyle;rounded=0;orthogonalLoop=1;jettySize=auto;html=1;entryX=0.5;entryY=0;entryDx=0;entryDy=0;" parent="1" source="SXCyoP0QDoGg-8MIkyOE-12" target="SXCyoP0QDoGg-8MIkyOE-108" edge="1">
          <mxGeometry relative="1" as="geometry">
            <Array as="points">
              <mxPoint x="2740" y="2140" />
              <mxPoint x="3460" y="2140" />
            </Array>
          </mxGeometry>
        </mxCell>
        <mxCell id="SXCyoP0QDoGg-8MIkyOE-12" value="Custom" style="rounded=1;whiteSpace=wrap;html=1;" parent="1" vertex="1">
          <mxGeometry x="2680" y="2040" width="120" height="60" as="geometry" />
        </mxCell>
        <mxCell id="SXCyoP0QDoGg-8MIkyOE-25" style="edgeStyle=orthogonalEdgeStyle;rounded=0;orthogonalLoop=1;jettySize=auto;html=1;entryX=0;entryY=0.5;entryDx=0;entryDy=0;" parent="1" source="SXCyoP0QDoGg-8MIkyOE-16" target="SXCyoP0QDoGg-8MIkyOE-21" edge="1">
          <mxGeometry relative="1" as="geometry">
            <Array as="points">
              <mxPoint x="1900" y="1950" />
            </Array>
          </mxGeometry>
        </mxCell>
        <mxCell id="SXCyoP0QDoGg-8MIkyOE-26" style="edgeStyle=orthogonalEdgeStyle;rounded=0;orthogonalLoop=1;jettySize=auto;html=1;entryX=0;entryY=0.5;entryDx=0;entryDy=0;exitX=0.5;exitY=1;exitDx=0;exitDy=0;" parent="1" source="SXCyoP0QDoGg-8MIkyOE-16" target="SXCyoP0QDoGg-8MIkyOE-20" edge="1">
          <mxGeometry relative="1" as="geometry">
            <mxPoint x="1860" y="1630" as="sourcePoint" />
            <mxPoint x="1900" y="1870" as="targetPoint" />
            <Array as="points">
              <mxPoint x="1900" y="1870" />
            </Array>
          </mxGeometry>
        </mxCell>
        <mxCell id="SXCyoP0QDoGg-8MIkyOE-27" style="edgeStyle=orthogonalEdgeStyle;rounded=0;orthogonalLoop=1;jettySize=auto;html=1;entryX=0;entryY=0.5;entryDx=0;entryDy=0;" parent="1" source="SXCyoP0QDoGg-8MIkyOE-16" target="SXCyoP0QDoGg-8MIkyOE-19" edge="1">
          <mxGeometry relative="1" as="geometry">
            <Array as="points">
              <mxPoint x="1900" y="1790" />
            </Array>
          </mxGeometry>
        </mxCell>
        <mxCell id="SXCyoP0QDoGg-8MIkyOE-28" style="edgeStyle=orthogonalEdgeStyle;rounded=0;orthogonalLoop=1;jettySize=auto;html=1;entryX=0;entryY=0.5;entryDx=0;entryDy=0;" parent="1" source="SXCyoP0QDoGg-8MIkyOE-16" target="SXCyoP0QDoGg-8MIkyOE-17" edge="1">
          <mxGeometry relative="1" as="geometry">
            <Array as="points">
              <mxPoint x="1900" y="1710" />
            </Array>
          </mxGeometry>
        </mxCell>
        <mxCell id="SXCyoP0QDoGg-8MIkyOE-16" value="Text (&quot;Propaganda&quot;)&lt;br&gt;(cycle)" style="rounded=1;whiteSpace=wrap;html=1;" parent="1" vertex="1">
          <mxGeometry x="1840" y="1560" width="120" height="60" as="geometry" />
        </mxCell>
        <mxCell id="SXCyoP0QDoGg-8MIkyOE-33" style="edgeStyle=orthogonalEdgeStyle;rounded=0;orthogonalLoop=1;jettySize=auto;html=1;entryX=0;entryY=0.5;entryDx=0;entryDy=0;" parent="1" source="SXCyoP0QDoGg-8MIkyOE-17" target="SXCyoP0QDoGg-8MIkyOE-29" edge="1">
          <mxGeometry relative="1" as="geometry">
            <mxPoint x="2230" y="1720" as="targetPoint" />
            <Array as="points">
              <mxPoint x="2200" y="1710" />
              <mxPoint x="2200" y="1710" />
            </Array>
          </mxGeometry>
        </mxCell>
        <mxCell id="SXCyoP0QDoGg-8MIkyOE-17" value="&lt;div&gt;Schrack Technic&lt;/div&gt;" style="rounded=1;whiteSpace=wrap;html=1;" parent="1" vertex="1">
          <mxGeometry x="2000" y="1680" width="120" height="60" as="geometry" />
        </mxCell>
        <mxCell id="SXCyoP0QDoGg-8MIkyOE-97" style="edgeStyle=orthogonalEdgeStyle;rounded=0;orthogonalLoop=1;jettySize=auto;html=1;entryX=0;entryY=0.5;entryDx=0;entryDy=0;" parent="1" source="SXCyoP0QDoGg-8MIkyOE-19" target="SXCyoP0QDoGg-8MIkyOE-29" edge="1">
          <mxGeometry relative="1" as="geometry" />
        </mxCell>
        <mxCell id="SXCyoP0QDoGg-8MIkyOE-19" value="Get Ready, Get Schreck" style="rounded=1;whiteSpace=wrap;html=1;" parent="1" vertex="1">
          <mxGeometry x="2000" y="1760" width="120" height="60" as="geometry" />
        </mxCell>
        <mxCell id="SXCyoP0QDoGg-8MIkyOE-35" style="edgeStyle=orthogonalEdgeStyle;rounded=0;orthogonalLoop=1;jettySize=auto;html=1;entryX=0;entryY=0.5;entryDx=0;entryDy=0;" parent="1" source="SXCyoP0QDoGg-8MIkyOE-20" target="SXCyoP0QDoGg-8MIkyOE-29" edge="1">
          <mxGeometry relative="1" as="geometry" />
        </mxCell>
        <mxCell id="SXCyoP0QDoGg-8MIkyOE-20" value="&lt;div&gt;&lt;span style=&quot;background-color: initial;&quot;&gt;Schrack for Students&lt;/span&gt;&lt;/div&gt;" style="rounded=1;whiteSpace=wrap;html=1;" parent="1" vertex="1">
          <mxGeometry x="2000" y="1840" width="120" height="60" as="geometry" />
        </mxCell>
        <mxCell id="SXCyoP0QDoGg-8MIkyOE-36" style="edgeStyle=orthogonalEdgeStyle;rounded=0;orthogonalLoop=1;jettySize=auto;html=1;entryX=0;entryY=0.5;entryDx=0;entryDy=0;" parent="1" source="SXCyoP0QDoGg-8MIkyOE-21" target="SXCyoP0QDoGg-8MIkyOE-29" edge="1">
          <mxGeometry relative="1" as="geometry" />
        </mxCell>
        <mxCell id="SXCyoP0QDoGg-8MIkyOE-21" value="&lt;div&gt;&lt;span style=&quot;background-color: initial;&quot;&gt;ARODEM&lt;/span&gt;&lt;br&gt;&lt;/div&gt;" style="rounded=1;whiteSpace=wrap;html=1;" parent="1" vertex="1">
          <mxGeometry x="2000" y="1920" width="120" height="60" as="geometry" />
        </mxCell>
        <mxCell id="SXCyoP0QDoGg-8MIkyOE-24" style="edgeStyle=orthogonalEdgeStyle;rounded=0;orthogonalLoop=1;jettySize=auto;html=1;entryX=0.5;entryY=0;entryDx=0;entryDy=0;" parent="1" source="SXCyoP0QDoGg-8MIkyOE-22" target="SXCyoP0QDoGg-8MIkyOE-6" edge="1">
          <mxGeometry relative="1" as="geometry" />
        </mxCell>
        <mxCell id="SXCyoP0QDoGg-8MIkyOE-22" value="BootUp anim" style="rounded=1;whiteSpace=wrap;html=1;" parent="1" vertex="1">
          <mxGeometry x="920" y="1160" width="120" height="60" as="geometry" />
        </mxCell>
        <mxCell id="SXCyoP0QDoGg-8MIkyOE-38" style="edgeStyle=orthogonalEdgeStyle;rounded=0;orthogonalLoop=1;jettySize=auto;html=1;entryX=1;entryY=0.5;entryDx=0;entryDy=0;exitX=0.5;exitY=0;exitDx=0;exitDy=0;" parent="1" source="SXCyoP0QDoGg-8MIkyOE-29" target="SXCyoP0QDoGg-8MIkyOE-16" edge="1">
          <mxGeometry relative="1" as="geometry">
            <mxPoint x="2120" y="1590" as="targetPoint" />
            <Array as="points">
              <mxPoint x="2300" y="1590" />
            </Array>
          </mxGeometry>
        </mxCell>
        <mxCell id="SXCyoP0QDoGg-8MIkyOE-29" value="Keep image for 30s(pm. 10s)" style="rounded=1;whiteSpace=wrap;html=1;" parent="1" vertex="1">
          <mxGeometry x="2240" y="1680" width="120" height="60" as="geometry" />
        </mxCell>
        <mxCell id="SXCyoP0QDoGg-8MIkyOE-46" style="edgeStyle=orthogonalEdgeStyle;rounded=0;orthogonalLoop=1;jettySize=auto;html=1;entryX=0.5;entryY=0;entryDx=0;entryDy=0;" parent="1" target="SXCyoP0QDoGg-8MIkyOE-3" edge="1">
          <mxGeometry relative="1" as="geometry">
            <mxPoint x="2520" y="1270" as="sourcePoint" />
            <Array as="points">
              <mxPoint x="2580" y="1270" />
            </Array>
          </mxGeometry>
        </mxCell>
        <mxCell id="SXCyoP0QDoGg-8MIkyOE-81" style="edgeStyle=orthogonalEdgeStyle;rounded=0;orthogonalLoop=1;jettySize=auto;html=1;entryX=0.5;entryY=0;entryDx=0;entryDy=0;exitX=0.5;exitY=1;exitDx=0;exitDy=0;" parent="1" source="SXCyoP0QDoGg-8MIkyOE-87" target="SXCyoP0QDoGg-8MIkyOE-2" edge="1">
          <mxGeometry relative="1" as="geometry">
            <Array as="points">
              <mxPoint x="2580" y="1400" />
              <mxPoint x="3660" y="1400" />
            </Array>
          </mxGeometry>
        </mxCell>
        <mxCell id="SXCyoP0QDoGg-8MIkyOE-42" value="1" style="text;html=1;strokeColor=none;fillColor=none;align=center;verticalAlign=middle;whiteSpace=wrap;rounded=0;" parent="1" vertex="1">
          <mxGeometry x="1900" y="1680" width="60" height="30" as="geometry" />
        </mxCell>
        <mxCell id="SXCyoP0QDoGg-8MIkyOE-43" value="2" style="text;html=1;strokeColor=none;fillColor=none;align=center;verticalAlign=middle;whiteSpace=wrap;rounded=0;" parent="1" vertex="1">
          <mxGeometry x="1900" y="1760" width="60" height="30" as="geometry" />
        </mxCell>
        <mxCell id="SXCyoP0QDoGg-8MIkyOE-44" value="3" style="text;html=1;strokeColor=none;fillColor=none;align=center;verticalAlign=middle;whiteSpace=wrap;rounded=0;" parent="1" vertex="1">
          <mxGeometry x="1900" y="1840" width="60" height="30" as="geometry" />
        </mxCell>
        <mxCell id="SXCyoP0QDoGg-8MIkyOE-45" value="4" style="text;html=1;strokeColor=none;fillColor=none;align=center;verticalAlign=middle;whiteSpace=wrap;rounded=0;" parent="1" vertex="1">
          <mxGeometry x="1900" y="1920" width="60" height="30" as="geometry" />
        </mxCell>
        <mxCell id="SXCyoP0QDoGg-8MIkyOE-47" value="Btn 1" style="text;html=1;strokeColor=none;fillColor=none;align=center;verticalAlign=middle;whiteSpace=wrap;rounded=0;" parent="1" vertex="1">
          <mxGeometry x="2581" y="1400" width="60" height="30" as="geometry" />
        </mxCell>
        <mxCell id="SXCyoP0QDoGg-8MIkyOE-49" value="Btn 1" style="text;html=1;strokeColor=none;fillColor=none;align=center;verticalAlign=middle;whiteSpace=wrap;rounded=0;" parent="1" vertex="1">
          <mxGeometry x="2581" y="1640" width="60" height="30" as="geometry" />
        </mxCell>
        <mxCell id="SXCyoP0QDoGg-8MIkyOE-50" value="Btn 2" style="text;html=1;strokeColor=none;fillColor=none;align=center;verticalAlign=middle;whiteSpace=wrap;rounded=0;" parent="1" vertex="1">
          <mxGeometry x="2581" y="2040" width="60" height="30" as="geometry" />
        </mxCell>
        <mxCell id="SXCyoP0QDoGg-8MIkyOE-59" style="edgeStyle=orthogonalEdgeStyle;rounded=0;orthogonalLoop=1;jettySize=auto;html=1;entryX=0.5;entryY=0;entryDx=0;entryDy=0;" parent="1" source="SXCyoP0QDoGg-8MIkyOE-51" target="SXCyoP0QDoGg-8MIkyOE-52" edge="1">
          <mxGeometry relative="1" as="geometry" />
        </mxCell>
        <mxCell id="SXCyoP0QDoGg-8MIkyOE-51" value="20min." style="rounded=1;whiteSpace=wrap;html=1;" parent="1" vertex="1">
          <mxGeometry x="2840" y="1720" width="120" height="60" as="geometry" />
        </mxCell>
        <mxCell id="SXCyoP0QDoGg-8MIkyOE-63" style="edgeStyle=orthogonalEdgeStyle;rounded=0;orthogonalLoop=1;jettySize=auto;html=1;entryX=0.5;entryY=0;entryDx=0;entryDy=0;" parent="1" source="SXCyoP0QDoGg-8MIkyOE-52" target="SXCyoP0QDoGg-8MIkyOE-53" edge="1">
          <mxGeometry relative="1" as="geometry" />
        </mxCell>
        <mxCell id="SXCyoP0QDoGg-8MIkyOE-52" value="30min." style="rounded=1;whiteSpace=wrap;html=1;" parent="1" vertex="1">
          <mxGeometry x="2840" y="1800" width="120" height="60" as="geometry" />
        </mxCell>
        <mxCell id="SXCyoP0QDoGg-8MIkyOE-64" style="edgeStyle=orthogonalEdgeStyle;rounded=0;orthogonalLoop=1;jettySize=auto;html=1;entryX=0.5;entryY=0;entryDx=0;entryDy=0;" parent="1" source="SXCyoP0QDoGg-8MIkyOE-53" target="SXCyoP0QDoGg-8MIkyOE-51" edge="1">
          <mxGeometry relative="1" as="geometry">
            <Array as="points">
              <mxPoint x="2900" y="1960" />
              <mxPoint x="2980" y="1960" />
              <mxPoint x="2980" y="1700" />
              <mxPoint x="2900" y="1700" />
            </Array>
          </mxGeometry>
        </mxCell>
        <mxCell id="SXCyoP0QDoGg-8MIkyOE-53" value="1h 30min." style="rounded=1;whiteSpace=wrap;html=1;" parent="1" vertex="1">
          <mxGeometry x="2840" y="1880" width="120" height="60" as="geometry" />
        </mxCell>
        <mxCell id="SXCyoP0QDoGg-8MIkyOE-67" style="edgeStyle=orthogonalEdgeStyle;rounded=0;orthogonalLoop=1;jettySize=auto;html=1;entryX=0;entryY=0.5;entryDx=0;entryDy=0;" parent="1" source="SXCyoP0QDoGg-8MIkyOE-65" target="SXCyoP0QDoGg-8MIkyOE-66" edge="1">
          <mxGeometry relative="1" as="geometry" />
        </mxCell>
        <mxCell id="SXCyoP0QDoGg-8MIkyOE-79" style="edgeStyle=orthogonalEdgeStyle;rounded=0;orthogonalLoop=1;jettySize=auto;html=1;entryX=0.5;entryY=0;entryDx=0;entryDy=0;" parent="1" source="SXCyoP0QDoGg-8MIkyOE-65" target="SXCyoP0QDoGg-8MIkyOE-3" edge="1">
          <mxGeometry relative="1" as="geometry">
            <Array as="points">
              <mxPoint x="2900" y="1540" />
              <mxPoint x="2580" y="1540" />
            </Array>
          </mxGeometry>
        </mxCell>
        <mxCell id="SXCyoP0QDoGg-8MIkyOE-70" style="edgeStyle=orthogonalEdgeStyle;rounded=0;orthogonalLoop=1;jettySize=auto;html=1;entryX=0;entryY=0.5;entryDx=0;entryDy=0;" parent="1" source="SXCyoP0QDoGg-8MIkyOE-66" target="SXCyoP0QDoGg-8MIkyOE-69" edge="1">
          <mxGeometry relative="1" as="geometry">
            <Array as="points" />
          </mxGeometry>
        </mxCell>
        <mxCell id="SXCyoP0QDoGg-8MIkyOE-77" style="edgeStyle=orthogonalEdgeStyle;rounded=0;orthogonalLoop=1;jettySize=auto;html=1;" parent="1" source="SXCyoP0QDoGg-8MIkyOE-66" edge="1">
          <mxGeometry relative="1" as="geometry">
            <mxPoint x="2580.0000000000005" y="1560" as="targetPoint" />
            <Array as="points">
              <mxPoint x="3170" y="1540" />
              <mxPoint x="2580" y="1540" />
            </Array>
          </mxGeometry>
        </mxCell>
        <mxCell id="SXCyoP0QDoGg-8MIkyOE-101" style="edgeStyle=orthogonalEdgeStyle;rounded=0;orthogonalLoop=1;jettySize=auto;html=1;entryX=0.5;entryY=0;entryDx=0;entryDy=0;" parent="1" source="SXCyoP0QDoGg-8MIkyOE-66" target="SXCyoP0QDoGg-8MIkyOE-100" edge="1">
          <mxGeometry relative="1" as="geometry" />
        </mxCell>
        <mxCell id="SXCyoP0QDoGg-8MIkyOE-66" value="Start countdown" style="rounded=1;whiteSpace=wrap;html=1;" parent="1" vertex="1">
          <mxGeometry x="3120" y="1680" width="120" height="60" as="geometry" />
        </mxCell>
        <mxCell id="SXCyoP0QDoGg-8MIkyOE-68" value="Btn 1" style="text;html=1;strokeColor=none;fillColor=none;align=center;verticalAlign=middle;whiteSpace=wrap;rounded=0;" parent="1" vertex="1">
          <mxGeometry x="3000" y="1810" width="60" height="30" as="geometry" />
        </mxCell>
        <mxCell id="SXCyoP0QDoGg-8MIkyOE-72" style="edgeStyle=orthogonalEdgeStyle;rounded=0;orthogonalLoop=1;jettySize=auto;html=1;" parent="1" source="SXCyoP0QDoGg-8MIkyOE-69" edge="1">
          <mxGeometry relative="1" as="geometry">
            <mxPoint x="3190" y="1680" as="targetPoint" />
            <Array as="points">
              <mxPoint x="3380" y="1660" />
              <mxPoint x="3190" y="1660" />
              <mxPoint x="3190" y="1680" />
            </Array>
          </mxGeometry>
        </mxCell>
        <mxCell id="SXCyoP0QDoGg-8MIkyOE-74" style="edgeStyle=orthogonalEdgeStyle;rounded=0;orthogonalLoop=1;jettySize=auto;html=1;entryX=0.5;entryY=0;entryDx=0;entryDy=0;" parent="1" source="SXCyoP0QDoGg-8MIkyOE-69" target="SXCyoP0QDoGg-8MIkyOE-3" edge="1">
          <mxGeometry relative="1" as="geometry">
            <Array as="points">
              <mxPoint x="3380" y="1540" />
              <mxPoint x="2580" y="1540" />
            </Array>
          </mxGeometry>
        </mxCell>
        <mxCell id="SXCyoP0QDoGg-8MIkyOE-69" value="Pause countdown" style="rounded=1;whiteSpace=wrap;html=1;" parent="1" vertex="1">
          <mxGeometry x="3320" y="1680" width="120" height="60" as="geometry" />
        </mxCell>
        <mxCell id="SXCyoP0QDoGg-8MIkyOE-71" value="Btn 2" style="text;html=1;strokeColor=none;fillColor=none;align=center;verticalAlign=middle;whiteSpace=wrap;rounded=0;" parent="1" vertex="1">
          <mxGeometry x="3240" y="1680" width="60" height="30" as="geometry" />
        </mxCell>
        <mxCell id="SXCyoP0QDoGg-8MIkyOE-73" value="Btn 1" style="text;html=1;strokeColor=none;fillColor=none;align=center;verticalAlign=middle;whiteSpace=wrap;rounded=0;" parent="1" vertex="1">
          <mxGeometry x="3320" y="1630" width="60" height="30" as="geometry" />
        </mxCell>
        <mxCell id="SXCyoP0QDoGg-8MIkyOE-76" value="Btn 4" style="text;html=1;strokeColor=none;fillColor=none;align=center;verticalAlign=middle;whiteSpace=wrap;rounded=0;" parent="1" vertex="1">
          <mxGeometry x="3320" y="1540" width="60" height="30" as="geometry" />
        </mxCell>
        <mxCell id="SXCyoP0QDoGg-8MIkyOE-78" value="Btn 4" style="text;html=1;strokeColor=none;fillColor=none;align=center;verticalAlign=middle;whiteSpace=wrap;rounded=0;" parent="1" vertex="1">
          <mxGeometry x="3110" y="1540" width="60" height="30" as="geometry" />
        </mxCell>
        <mxCell id="SXCyoP0QDoGg-8MIkyOE-80" value="Btn 4" style="text;html=1;strokeColor=none;fillColor=none;align=center;verticalAlign=middle;whiteSpace=wrap;rounded=0;" parent="1" vertex="1">
          <mxGeometry x="2840" y="1540" width="60" height="30" as="geometry" />
        </mxCell>
        <mxCell id="SXCyoP0QDoGg-8MIkyOE-82" value="Btn 2" style="text;html=1;strokeColor=none;fillColor=none;align=center;verticalAlign=middle;whiteSpace=wrap;rounded=0;" parent="1" vertex="1">
          <mxGeometry x="2581" y="1370" width="60" height="30" as="geometry" />
        </mxCell>
        <mxCell id="SXCyoP0QDoGg-8MIkyOE-83" value="Btn 1" style="text;html=1;strokeColor=none;fillColor=none;align=center;verticalAlign=middle;whiteSpace=wrap;rounded=0;" parent="1" vertex="1">
          <mxGeometry x="1040" y="1240" width="60" height="30" as="geometry" />
        </mxCell>
        <mxCell id="SXCyoP0QDoGg-8MIkyOE-85" style="edgeStyle=orthogonalEdgeStyle;rounded=0;orthogonalLoop=1;jettySize=auto;html=1;entryX=0.5;entryY=0;entryDx=0;entryDy=0;" parent="1" source="SXCyoP0QDoGg-8MIkyOE-84" target="SXCyoP0QDoGg-8MIkyOE-16" edge="1">
          <mxGeometry relative="1" as="geometry">
            <mxPoint x="1620" y="1440" as="targetPoint" />
            <Array as="points">
              <mxPoint x="1900" y="1270" />
            </Array>
          </mxGeometry>
        </mxCell>
        <mxCell id="SXCyoP0QDoGg-8MIkyOE-90" style="edgeStyle=orthogonalEdgeStyle;rounded=0;orthogonalLoop=1;jettySize=auto;html=1;entryX=0;entryY=0.5;entryDx=0;entryDy=0;" parent="1" source="SXCyoP0QDoGg-8MIkyOE-84" target="SXCyoP0QDoGg-8MIkyOE-87" edge="1">
          <mxGeometry relative="1" as="geometry" />
        </mxCell>
        <mxCell id="SXCyoP0QDoGg-8MIkyOE-84" value="Main Menu" style="rounded=1;whiteSpace=wrap;html=1;" parent="1" vertex="1">
          <mxGeometry x="1560" y="1240" width="120" height="60" as="geometry" />
        </mxCell>
        <mxCell id="SXCyoP0QDoGg-8MIkyOE-86" value="Btn 1" style="text;html=1;strokeColor=none;fillColor=none;align=center;verticalAlign=middle;whiteSpace=wrap;rounded=0;" parent="1" vertex="1">
          <mxGeometry x="1900" y="1270" width="60" height="30" as="geometry" />
        </mxCell>
        <mxCell id="SXCyoP0QDoGg-8MIkyOE-98" style="edgeStyle=orthogonalEdgeStyle;rounded=0;orthogonalLoop=1;jettySize=auto;html=1;entryX=0.5;entryY=0;entryDx=0;entryDy=0;" parent="1" source="SXCyoP0QDoGg-8MIkyOE-87" target="SXCyoP0QDoGg-8MIkyOE-84" edge="1">
          <mxGeometry relative="1" as="geometry">
            <Array as="points">
              <mxPoint x="2580" y="1200" />
              <mxPoint x="1620" y="1200" />
            </Array>
          </mxGeometry>
        </mxCell>
        <mxCell id="SXCyoP0QDoGg-8MIkyOE-87" value="Time" style="rounded=1;whiteSpace=wrap;html=1;" parent="1" vertex="1">
          <mxGeometry x="2520" y="1240" width="120" height="60" as="geometry" />
        </mxCell>
        <mxCell id="SXCyoP0QDoGg-8MIkyOE-89" value="Btn 4" style="text;html=1;strokeColor=none;fillColor=none;align=center;verticalAlign=middle;whiteSpace=wrap;rounded=0;" parent="1" vertex="1">
          <mxGeometry x="2641" y="1560" width="60" height="30" as="geometry" />
        </mxCell>
        <mxCell id="SXCyoP0QDoGg-8MIkyOE-91" value="Btn 2" style="text;html=1;strokeColor=none;fillColor=none;align=center;verticalAlign=middle;whiteSpace=wrap;rounded=0;" parent="1" vertex="1">
          <mxGeometry x="1900" y="1240" width="60" height="30" as="geometry" />
        </mxCell>
        <mxCell id="SXCyoP0QDoGg-8MIkyOE-95" value="Btn 4" style="text;html=1;strokeColor=none;fillColor=none;align=center;verticalAlign=middle;whiteSpace=wrap;rounded=0;" parent="1" vertex="1">
          <mxGeometry x="1730" y="1730" width="60" height="30" as="geometry" />
        </mxCell>
        <mxCell id="SXCyoP0QDoGg-8MIkyOE-99" value="Btn 4" style="text;html=1;strokeColor=none;fillColor=none;align=center;verticalAlign=middle;whiteSpace=wrap;rounded=0;" parent="1" vertex="1">
          <mxGeometry x="2520" y="1200" width="60" height="30" as="geometry" />
        </mxCell>
        <mxCell id="SXCyoP0QDoGg-8MIkyOE-104" style="edgeStyle=orthogonalEdgeStyle;rounded=0;orthogonalLoop=1;jettySize=auto;html=1;entryX=0.5;entryY=0;entryDx=0;entryDy=0;" parent="1" source="SXCyoP0QDoGg-8MIkyOE-100" target="SXCyoP0QDoGg-8MIkyOE-3" edge="1">
          <mxGeometry relative="1" as="geometry">
            <Array as="points">
              <mxPoint x="3460" y="1830" />
              <mxPoint x="3460" y="1540" />
              <mxPoint x="2580" y="1540" />
            </Array>
          </mxGeometry>
        </mxCell>
        <mxCell id="SXCyoP0QDoGg-8MIkyOE-100" value="Time end + buzzer(5s)" style="rounded=1;whiteSpace=wrap;html=1;" parent="1" vertex="1">
          <mxGeometry x="3120" y="1800" width="120" height="60" as="geometry" />
        </mxCell>
        <mxCell id="SXCyoP0QDoGg-8MIkyOE-103" value="RemTime == 0" style="text;html=1;strokeColor=none;fillColor=none;align=center;verticalAlign=middle;whiteSpace=wrap;rounded=0;" parent="1" vertex="1">
          <mxGeometry x="3180" y="1740" width="90" height="30" as="geometry" />
        </mxCell>
        <mxCell id="SXCyoP0QDoGg-8MIkyOE-105" value="Btn *" style="text;html=1;strokeColor=none;fillColor=none;align=center;verticalAlign=middle;whiteSpace=wrap;rounded=0;" parent="1" vertex="1">
          <mxGeometry x="3240" y="1800" width="60" height="30" as="geometry" />
        </mxCell>
        <mxCell id="SXCyoP0QDoGg-8MIkyOE-107" value="Btn 4" style="text;html=1;strokeColor=none;fillColor=none;align=center;verticalAlign=middle;whiteSpace=wrap;rounded=0;" parent="1" vertex="1">
          <mxGeometry x="3720" y="1520" width="60" height="30" as="geometry" />
        </mxCell>
        <mxCell id="SXCyoP0QDoGg-8MIkyOE-124" style="edgeStyle=orthogonalEdgeStyle;rounded=0;orthogonalLoop=1;jettySize=auto;html=1;entryX=1;entryY=0.5;entryDx=0;entryDy=0;" parent="1" source="SXCyoP0QDoGg-8MIkyOE-108" target="SXCyoP0QDoGg-8MIkyOE-115" edge="1">
          <mxGeometry relative="1" as="geometry" />
        </mxCell>
        <mxCell id="SXCyoP0QDoGg-8MIkyOE-108" value="##:##:#1" style="rounded=1;whiteSpace=wrap;html=1;" parent="1" vertex="1">
          <mxGeometry x="3400" y="2320" width="120" height="60" as="geometry" />
        </mxCell>
        <mxCell id="SXCyoP0QDoGg-8MIkyOE-111" value="Btn 1" style="text;html=1;strokeColor=none;fillColor=none;align=center;verticalAlign=middle;whiteSpace=wrap;rounded=0;" parent="1" vertex="1">
          <mxGeometry x="2740" y="1990" width="60" height="30" as="geometry" />
        </mxCell>
        <mxCell id="SXCyoP0QDoGg-8MIkyOE-114" value="" style="edgeStyle=orthogonalEdgeStyle;rounded=0;orthogonalLoop=1;jettySize=auto;html=1;entryX=0.5;entryY=0;entryDx=0;entryDy=0;" parent="1" source="SXCyoP0QDoGg-8MIkyOE-12" target="SXCyoP0QDoGg-8MIkyOE-3" edge="1">
          <mxGeometry relative="1" as="geometry">
            <mxPoint x="2800" y="2070" as="sourcePoint" />
            <mxPoint x="2580" y="1560" as="targetPoint" />
            <Array as="points">
              <mxPoint x="3460" y="2070" />
              <mxPoint x="3460" y="1540" />
              <mxPoint x="2580" y="1540" />
            </Array>
          </mxGeometry>
        </mxCell>
        <mxCell id="SXCyoP0QDoGg-8MIkyOE-113" value="Btn 4" style="text;html=1;strokeColor=none;fillColor=none;align=center;verticalAlign=middle;whiteSpace=wrap;rounded=0;" parent="1" vertex="1">
          <mxGeometry x="2800" y="2040" width="60" height="30" as="geometry" />
        </mxCell>
        <mxCell id="SXCyoP0QDoGg-8MIkyOE-125" style="edgeStyle=orthogonalEdgeStyle;rounded=0;orthogonalLoop=1;jettySize=auto;html=1;" parent="1" source="SXCyoP0QDoGg-8MIkyOE-115" target="SXCyoP0QDoGg-8MIkyOE-116" edge="1">
          <mxGeometry relative="1" as="geometry" />
        </mxCell>
        <mxCell id="SXCyoP0QDoGg-8MIkyOE-115" value="##:##:1#" style="rounded=1;whiteSpace=wrap;html=1;" parent="1" vertex="1">
          <mxGeometry x="3240" y="2320" width="120" height="60" as="geometry" />
        </mxCell>
        <mxCell id="SXCyoP0QDoGg-8MIkyOE-126" style="edgeStyle=orthogonalEdgeStyle;rounded=0;orthogonalLoop=1;jettySize=auto;html=1;" parent="1" source="SXCyoP0QDoGg-8MIkyOE-116" target="SXCyoP0QDoGg-8MIkyOE-117" edge="1">
          <mxGeometry relative="1" as="geometry" />
        </mxCell>
        <mxCell id="SXCyoP0QDoGg-8MIkyOE-116" value="##:#1:##" style="rounded=1;whiteSpace=wrap;html=1;" parent="1" vertex="1">
          <mxGeometry x="3080" y="2320" width="120" height="60" as="geometry" />
        </mxCell>
        <mxCell id="SXCyoP0QDoGg-8MIkyOE-127" style="edgeStyle=orthogonalEdgeStyle;rounded=0;orthogonalLoop=1;jettySize=auto;html=1;" parent="1" source="SXCyoP0QDoGg-8MIkyOE-117" target="SXCyoP0QDoGg-8MIkyOE-118" edge="1">
          <mxGeometry relative="1" as="geometry" />
        </mxCell>
        <mxCell id="SXCyoP0QDoGg-8MIkyOE-117" value="##:1#:##" style="rounded=1;whiteSpace=wrap;html=1;" parent="1" vertex="1">
          <mxGeometry x="2920" y="2320" width="120" height="60" as="geometry" />
        </mxCell>
        <mxCell id="SXCyoP0QDoGg-8MIkyOE-128" style="edgeStyle=orthogonalEdgeStyle;rounded=0;orthogonalLoop=1;jettySize=auto;html=1;" parent="1" source="SXCyoP0QDoGg-8MIkyOE-118" target="SXCyoP0QDoGg-8MIkyOE-119" edge="1">
          <mxGeometry relative="1" as="geometry" />
        </mxCell>
        <mxCell id="SXCyoP0QDoGg-8MIkyOE-118" value="#1:##:##" style="rounded=1;whiteSpace=wrap;html=1;" parent="1" vertex="1">
          <mxGeometry x="2760" y="2320" width="120" height="60" as="geometry" />
        </mxCell>
        <mxCell id="SXCyoP0QDoGg-8MIkyOE-129" style="edgeStyle=orthogonalEdgeStyle;rounded=0;orthogonalLoop=1;jettySize=auto;html=1;entryX=0.5;entryY=0;entryDx=0;entryDy=0;" parent="1" source="SXCyoP0QDoGg-8MIkyOE-119" target="SXCyoP0QDoGg-8MIkyOE-108" edge="1">
          <mxGeometry relative="1" as="geometry">
            <Array as="points">
              <mxPoint x="2660" y="2300" />
              <mxPoint x="3460" y="2300" />
            </Array>
          </mxGeometry>
        </mxCell>
        <mxCell id="SXCyoP0QDoGg-8MIkyOE-119" value="1#:##:##" style="rounded=1;whiteSpace=wrap;html=1;" parent="1" vertex="1">
          <mxGeometry x="2600" y="2320" width="120" height="60" as="geometry" />
        </mxCell>
        <mxCell id="SXCyoP0QDoGg-8MIkyOE-130" value="&lt;h1&gt;Custom countdown&lt;/h1&gt;&lt;p&gt;Btn 2 - move cursor&lt;/p&gt;&lt;p&gt;Btn 3 - Increase selected digit by one&lt;/p&gt;" style="text;html=1;strokeColor=none;fillColor=none;spacing=5;spacingTop=-20;whiteSpace=wrap;overflow=hidden;rounded=0;" parent="1" vertex="1">
          <mxGeometry x="2740" y="2140" width="380" height="120" as="geometry" />
        </mxCell>
        <mxCell id="rBUb9HK6NPcIUxHZin6S-1" style="edgeStyle=orthogonalEdgeStyle;rounded=0;orthogonalLoop=1;jettySize=auto;html=1;entryX=0;entryY=0.5;entryDx=0;entryDy=0;" parent="1" source="mlEwPzFLcf0J3GzHr4Wt-1" target="SXCyoP0QDoGg-8MIkyOE-6" edge="1">
          <mxGeometry relative="1" as="geometry" />
        </mxCell>
        <mxCell id="mlEwPzFLcf0J3GzHr4Wt-1" value="Err screen" style="rounded=1;whiteSpace=wrap;html=1;" parent="1" vertex="1">
          <mxGeometry x="700" y="1240" width="120" height="60" as="geometry" />
        </mxCell>
        <mxCell id="mlEwPzFLcf0J3GzHr4Wt-2" value="State == 0" style="text;html=1;align=center;verticalAlign=middle;whiteSpace=wrap;rounded=0;" parent="1" vertex="1">
          <mxGeometry x="730" y="1270" width="60" height="30" as="geometry" />
        </mxCell>
        <mxCell id="mlEwPzFLcf0J3GzHr4Wt-3" value="State == 2" style="text;html=1;align=center;verticalAlign=middle;whiteSpace=wrap;rounded=0;" parent="1" vertex="1">
          <mxGeometry x="950" y="1270" width="60" height="30" as="geometry" />
        </mxCell>
        <mxCell id="mlEwPzFLcf0J3GzHr4Wt-5" value="" style="edgeStyle=orthogonalEdgeStyle;rounded=0;orthogonalLoop=1;jettySize=auto;html=1;entryX=0.5;entryY=1;entryDx=0;entryDy=0;" parent="1" source="SXCyoP0QDoGg-8MIkyOE-41" target="mlEwPzFLcf0J3GzHr4Wt-4" edge="1">
          <mxGeometry relative="1" as="geometry">
            <mxPoint x="1790" y="1760" as="sourcePoint" />
            <mxPoint x="1620" y="1300" as="targetPoint" />
          </mxGeometry>
        </mxCell>
        <mxCell id="mlEwPzFLcf0J3GzHr4Wt-4" value="State == 3" style="text;html=1;align=center;verticalAlign=middle;whiteSpace=wrap;rounded=0;" parent="1" vertex="1">
          <mxGeometry x="1590" y="1270" width="60" height="30" as="geometry" />
        </mxCell>
        <mxCell id="mlEwPzFLcf0J3GzHr4Wt-6" value="State == 100" style="text;html=1;align=center;verticalAlign=middle;whiteSpace=wrap;rounded=0;" parent="1" vertex="1">
          <mxGeometry x="1840" y="1600" width="120" height="30" as="geometry" />
        </mxCell>
        <mxCell id="mlEwPzFLcf0J3GzHr4Wt-8" value="State == 200" style="text;html=1;align=center;verticalAlign=middle;whiteSpace=wrap;rounded=0;" parent="1" vertex="1">
          <mxGeometry x="2520" y="1270" width="120" height="30" as="geometry" />
        </mxCell>
        <mxCell id="mlEwPzFLcf0J3GzHr4Wt-10" value="State == 210" style="text;html=1;align=center;verticalAlign=middle;whiteSpace=wrap;rounded=0;" parent="1" vertex="1">
          <mxGeometry x="2520" y="1600" width="120" height="30" as="geometry" />
        </mxCell>
        <mxCell id="mlEwPzFLcf0J3GzHr4Wt-11" value="State == 220" style="text;html=1;align=center;verticalAlign=middle;whiteSpace=wrap;rounded=0;" parent="1" vertex="1">
          <mxGeometry x="3600" y="1550" width="120" height="30" as="geometry" />
        </mxCell>
        <mxCell id="mlEwPzFLcf0J3GzHr4Wt-12" value="State == 211" style="text;html=1;align=center;verticalAlign=middle;whiteSpace=wrap;rounded=0;" parent="1" vertex="1">
          <mxGeometry x="2680" y="1680" width="120" height="30" as="geometry" />
        </mxCell>
        <mxCell id="mlEwPzFLcf0J3GzHr4Wt-13" value="State == 212" style="text;html=1;align=center;verticalAlign=middle;whiteSpace=wrap;rounded=0;" parent="1" vertex="1">
          <mxGeometry x="2680" y="2070" width="120" height="30" as="geometry" />
        </mxCell>
        <mxCell id="mlEwPzFLcf0J3GzHr4Wt-14" value="State == 213" style="text;html=1;align=center;verticalAlign=middle;whiteSpace=wrap;rounded=0;" parent="1" vertex="1">
          <mxGeometry x="3120" y="1710" width="120" height="30" as="geometry" />
        </mxCell>
        <mxCell id="mlEwPzFLcf0J3GzHr4Wt-15" value="State == 215" style="text;html=1;align=center;verticalAlign=middle;whiteSpace=wrap;rounded=0;" parent="1" vertex="1">
          <mxGeometry x="3320" y="1710" width="120" height="30" as="geometry" />
        </mxCell>
        <mxCell id="mlEwPzFLcf0J3GzHr4Wt-16" value="State == 214" style="text;html=1;align=center;verticalAlign=middle;whiteSpace=wrap;rounded=0;" parent="1" vertex="1">
          <mxGeometry x="3120" y="1840" width="120" height="30" as="geometry" />
        </mxCell>
        <mxCell id="mlEwPzFLcf0J3GzHr4Wt-17" value="State == 1" style="text;html=1;align=center;verticalAlign=middle;whiteSpace=wrap;rounded=0;" parent="1" vertex="1">
          <mxGeometry x="950" y="1190" width="60" height="30" as="geometry" />
        </mxCell>
        <mxCell id="rBUb9HK6NPcIUxHZin6S-2" value="Btn 1" style="text;html=1;strokeColor=none;fillColor=none;align=center;verticalAlign=middle;whiteSpace=wrap;rounded=0;" parent="1" vertex="1">
          <mxGeometry x="820" y="1240" width="60" height="30" as="geometry" />
        </mxCell>
        <mxCell id="JBVnBcPW6TnzyfwFk8pA-44" style="edgeStyle=orthogonalEdgeStyle;rounded=0;orthogonalLoop=1;jettySize=auto;html=1;entryX=0;entryY=0;entryDx=0;entryDy=0;exitX=0.5;exitY=1;exitDx=0;exitDy=0;" parent="1" source="WlCZ4AbD_9wq8jV4FCS_-2" target="JBVnBcPW6TnzyfwFk8pA-9" edge="1">
          <mxGeometry relative="1" as="geometry">
            <mxPoint x="980.0599999999995" y="1560" as="sourcePoint" />
            <Array as="points">
              <mxPoint x="980" y="1590" />
            </Array>
          </mxGeometry>
        </mxCell>
        <mxCell id="JBVnBcPW6TnzyfwFk8pA-45" style="edgeStyle=orthogonalEdgeStyle;rounded=0;orthogonalLoop=1;jettySize=auto;html=1;entryX=0;entryY=0;entryDx=0;entryDy=0;" parent="1" target="JBVnBcPW6TnzyfwFk8pA-25" edge="1">
          <mxGeometry relative="1" as="geometry">
            <mxPoint x="980.0011764705882" y="1540" as="sourcePoint" />
            <Array as="points">
              <mxPoint x="980" y="2070" />
            </Array>
          </mxGeometry>
        </mxCell>
        <mxCell id="JBVnBcPW6TnzyfwFk8pA-65" style="edgeStyle=orthogonalEdgeStyle;rounded=0;orthogonalLoop=1;jettySize=auto;html=1;entryX=0;entryY=0;entryDx=0;entryDy=0;exitX=0.5;exitY=1;exitDx=0;exitDy=0;" parent="1" source="WlCZ4AbD_9wq8jV4FCS_-2" target="JBVnBcPW6TnzyfwFk8pA-64" edge="1">
          <mxGeometry relative="1" as="geometry">
            <mxPoint x="980.0011764705882" y="1560" as="sourcePoint" />
            <Array as="points">
              <mxPoint x="980" y="2550" />
            </Array>
          </mxGeometry>
        </mxCell>
        <mxCell id="JBVnBcPW6TnzyfwFk8pA-67" style="edgeStyle=orthogonalEdgeStyle;rounded=0;orthogonalLoop=1;jettySize=auto;html=1;entryX=0;entryY=0.5;entryDx=0;entryDy=0;" parent="1" source="WlCZ4AbD_9wq8jV4FCS_-1" target="SXCyoP0QDoGg-8MIkyOE-84" edge="1">
          <mxGeometry relative="1" as="geometry">
            <Array as="points">
              <mxPoint x="1230" y="1470" />
              <mxPoint x="1230" y="1270" />
            </Array>
          </mxGeometry>
        </mxCell>
        <mxCell id="WlCZ4AbD_9wq8jV4FCS_-1" value="The secret part" style="rounded=1;whiteSpace=wrap;html=1;" parent="1" vertex="1">
          <mxGeometry x="920" y="1440" width="120" height="60" as="geometry" />
        </mxCell>
        <mxCell id="WlCZ4AbD_9wq8jV4FCS_-2" value="State == 90" style="text;html=1;align=center;verticalAlign=middle;whiteSpace=wrap;rounded=0;" parent="1" vertex="1">
          <mxGeometry x="920" y="1470" width="120" height="30" as="geometry" />
        </mxCell>
        <mxCell id="WlCZ4AbD_9wq8jV4FCS_-6" value="&lt;h1 style=&quot;margin-top: 0px;&quot;&gt;Undocumented&lt;/h1&gt;&lt;p&gt;They don&#39;t know about this part. Give Them only a hint that this exists. :3&lt;/p&gt;" style="text;html=1;whiteSpace=wrap;overflow=hidden;rounded=0;" parent="1" vertex="1">
          <mxGeometry x="1300" y="1440" width="180" height="120" as="geometry" />
        </mxCell>
        <mxCell id="WlCZ4AbD_9wq8jV4FCS_-8" value="Btn 4" style="text;html=1;strokeColor=none;fillColor=none;align=center;verticalAlign=middle;whiteSpace=wrap;rounded=0;" parent="1" vertex="1">
          <mxGeometry x="980" y="1300" width="60" height="30" as="geometry" />
        </mxCell>
        <mxCell id="JBVnBcPW6TnzyfwFk8pA-1" value="on any released diagram this arrow should just fade out with distance" style="text;html=1;strokeColor=none;fillColor=none;align=center;verticalAlign=middle;whiteSpace=wrap;rounded=0;" parent="1" vertex="1">
          <mxGeometry x="990" y="1340" width="190" height="30" as="geometry" />
        </mxCell>
        <mxCell id="JBVnBcPW6TnzyfwFk8pA-26" style="edgeStyle=orthogonalEdgeStyle;rounded=0;orthogonalLoop=1;jettySize=auto;html=1;entryX=0;entryY=0.5;entryDx=0;entryDy=0;exitX=0.5;exitY=1;exitDx=0;exitDy=0;" parent="1" source="JBVnBcPW6TnzyfwFk8pA-9" target="JBVnBcPW6TnzyfwFk8pA-12" edge="1">
          <mxGeometry relative="1" as="geometry">
            <Array as="points">
              <mxPoint x="1140" y="1670" />
            </Array>
          </mxGeometry>
        </mxCell>
        <mxCell id="JBVnBcPW6TnzyfwFk8pA-27" style="edgeStyle=orthogonalEdgeStyle;rounded=0;orthogonalLoop=1;jettySize=auto;html=1;entryX=0;entryY=0.5;entryDx=0;entryDy=0;exitX=0.5;exitY=1;exitDx=0;exitDy=0;" parent="1" source="JBVnBcPW6TnzyfwFk8pA-9" target="JBVnBcPW6TnzyfwFk8pA-11" edge="1">
          <mxGeometry relative="1" as="geometry">
            <Array as="points">
              <mxPoint x="1140" y="1750" />
            </Array>
          </mxGeometry>
        </mxCell>
        <mxCell id="JBVnBcPW6TnzyfwFk8pA-28" style="edgeStyle=orthogonalEdgeStyle;rounded=0;orthogonalLoop=1;jettySize=auto;html=1;entryX=0;entryY=0.5;entryDx=0;entryDy=0;exitX=0.5;exitY=1;exitDx=0;exitDy=0;" parent="1" source="JBVnBcPW6TnzyfwFk8pA-9" target="JBVnBcPW6TnzyfwFk8pA-10" edge="1">
          <mxGeometry relative="1" as="geometry">
            <Array as="points">
              <mxPoint x="1140" y="1830" />
            </Array>
          </mxGeometry>
        </mxCell>
        <mxCell id="JBVnBcPW6TnzyfwFk8pA-29" style="edgeStyle=orthogonalEdgeStyle;rounded=0;orthogonalLoop=1;jettySize=auto;html=1;entryX=0;entryY=0.5;entryDx=0;entryDy=0;exitX=0.5;exitY=1;exitDx=0;exitDy=0;" parent="1" source="JBVnBcPW6TnzyfwFk8pA-9" target="JBVnBcPW6TnzyfwFk8pA-19" edge="1">
          <mxGeometry relative="1" as="geometry">
            <Array as="points">
              <mxPoint x="1140" y="1990" />
            </Array>
          </mxGeometry>
        </mxCell>
        <mxCell id="JBVnBcPW6TnzyfwFk8pA-70" style="edgeStyle=orthogonalEdgeStyle;rounded=0;orthogonalLoop=1;jettySize=auto;html=1;entryX=0.25;entryY=1;entryDx=0;entryDy=0;" parent="1" source="JBVnBcPW6TnzyfwFk8pA-2" target="WlCZ4AbD_9wq8jV4FCS_-2" edge="1">
          <mxGeometry relative="1" as="geometry">
            <mxPoint x="950.0599999999995" y="1560" as="targetPoint" />
            <Array as="points">
              <mxPoint x="1140" y="1540" />
              <mxPoint x="950" y="1540" />
            </Array>
          </mxGeometry>
        </mxCell>
        <mxCell id="JBVnBcPW6TnzyfwFk8pA-2" value="Credits" style="rounded=1;whiteSpace=wrap;html=1;" parent="1" vertex="1">
          <mxGeometry x="1080.06" y="1560" width="120" height="60" as="geometry" />
        </mxCell>
        <mxCell id="JBVnBcPW6TnzyfwFk8pA-30" style="edgeStyle=orthogonalEdgeStyle;rounded=0;orthogonalLoop=1;jettySize=auto;html=1;entryX=0;entryY=0.5;entryDx=0;entryDy=0;exitX=0.5;exitY=1;exitDx=0;exitDy=0;" parent="1" source="JBVnBcPW6TnzyfwFk8pA-25" target="JBVnBcPW6TnzyfwFk8pA-22" edge="1">
          <mxGeometry relative="1" as="geometry" />
        </mxCell>
        <mxCell id="JBVnBcPW6TnzyfwFk8pA-31" style="edgeStyle=orthogonalEdgeStyle;rounded=0;orthogonalLoop=1;jettySize=auto;html=1;entryX=0;entryY=0.5;entryDx=0;entryDy=0;exitX=0.5;exitY=1;exitDx=0;exitDy=0;" parent="1" source="JBVnBcPW6TnzyfwFk8pA-25" target="JBVnBcPW6TnzyfwFk8pA-20" edge="1">
          <mxGeometry relative="1" as="geometry" />
        </mxCell>
        <mxCell id="JBVnBcPW6TnzyfwFk8pA-32" style="edgeStyle=orthogonalEdgeStyle;rounded=0;orthogonalLoop=1;jettySize=auto;html=1;entryX=0;entryY=0.5;entryDx=0;entryDy=0;exitX=0.5;exitY=1;exitDx=0;exitDy=0;" parent="1" source="JBVnBcPW6TnzyfwFk8pA-25" target="JBVnBcPW6TnzyfwFk8pA-23" edge="1">
          <mxGeometry relative="1" as="geometry" />
        </mxCell>
        <mxCell id="JBVnBcPW6TnzyfwFk8pA-33" style="edgeStyle=orthogonalEdgeStyle;rounded=0;orthogonalLoop=1;jettySize=auto;html=1;entryX=0;entryY=0.5;entryDx=0;entryDy=0;exitX=0.5;exitY=1;exitDx=0;exitDy=0;" parent="1" source="JBVnBcPW6TnzyfwFk8pA-25" target="JBVnBcPW6TnzyfwFk8pA-21" edge="1">
          <mxGeometry relative="1" as="geometry" />
        </mxCell>
        <mxCell id="JBVnBcPW6TnzyfwFk8pA-34" style="edgeStyle=orthogonalEdgeStyle;rounded=0;orthogonalLoop=1;jettySize=auto;html=1;entryX=0;entryY=0.5;entryDx=0;entryDy=0;exitX=0.5;exitY=1;exitDx=0;exitDy=0;" parent="1" source="JBVnBcPW6TnzyfwFk8pA-25" target="JBVnBcPW6TnzyfwFk8pA-24" edge="1">
          <mxGeometry relative="1" as="geometry" />
        </mxCell>
        <mxCell id="JBVnBcPW6TnzyfwFk8pA-69" value="" style="edgeStyle=orthogonalEdgeStyle;rounded=0;orthogonalLoop=1;jettySize=auto;html=1;entryX=0.25;entryY=1;entryDx=0;entryDy=0;" parent="1" source="JBVnBcPW6TnzyfwFk8pA-3" target="WlCZ4AbD_9wq8jV4FCS_-2" edge="1">
          <mxGeometry relative="1" as="geometry">
            <mxPoint x="950.0599999999995" y="1560" as="targetPoint" />
            <Array as="points">
              <mxPoint x="1140" y="2020" />
              <mxPoint x="950" y="2020" />
            </Array>
          </mxGeometry>
        </mxCell>
        <mxCell id="JBVnBcPW6TnzyfwFk8pA-3" value="Texts form dev team+" style="rounded=1;whiteSpace=wrap;html=1;" parent="1" vertex="1">
          <mxGeometry x="1080.06" y="2040" width="120" height="60" as="geometry" />
        </mxCell>
        <mxCell id="JBVnBcPW6TnzyfwFk8pA-71" style="edgeStyle=orthogonalEdgeStyle;rounded=0;orthogonalLoop=1;jettySize=auto;html=1;entryX=0.25;entryY=1;entryDx=0;entryDy=0;" parent="1" source="JBVnBcPW6TnzyfwFk8pA-4" target="WlCZ4AbD_9wq8jV4FCS_-2" edge="1">
          <mxGeometry relative="1" as="geometry">
            <Array as="points">
              <mxPoint x="1140" y="2500" />
              <mxPoint x="950" y="2500" />
            </Array>
          </mxGeometry>
        </mxCell>
        <mxCell id="JBVnBcPW6TnzyfwFk8pA-4" value="[Game]" style="rounded=1;whiteSpace=wrap;html=1;" parent="1" vertex="1">
          <mxGeometry x="1080.06" y="2520" width="120" height="60" as="geometry" />
        </mxCell>
        <mxCell id="JBVnBcPW6TnzyfwFk8pA-5" value="PCB: Savva Popov" style="rounded=1;whiteSpace=wrap;html=1;" parent="1" vertex="1">
          <mxGeometry x="1240.06" y="1640" width="120" height="60" as="geometry" />
        </mxCell>
        <mxCell id="JBVnBcPW6TnzyfwFk8pA-6" value="Software: Natani Simak" style="rounded=1;whiteSpace=wrap;html=1;" parent="1" vertex="1">
          <mxGeometry x="1240.06" y="1720" width="120" height="60" as="geometry" />
        </mxCell>
        <mxCell id="JBVnBcPW6TnzyfwFk8pA-7" value="Mechanics: Filip Kadlec, Jonas Jary" style="rounded=1;whiteSpace=wrap;html=1;" parent="1" vertex="1">
          <mxGeometry x="1240.06" y="1800" width="120" height="60" as="geometry" />
        </mxCell>
        <mxCell id="JBVnBcPW6TnzyfwFk8pA-9" value="State == 91" style="text;html=1;align=center;verticalAlign=middle;whiteSpace=wrap;rounded=0;" parent="1" vertex="1">
          <mxGeometry x="1080.06" y="1590" width="120" height="30" as="geometry" />
        </mxCell>
        <mxCell id="JBVnBcPW6TnzyfwFk8pA-50" style="edgeStyle=orthogonalEdgeStyle;rounded=0;orthogonalLoop=1;jettySize=auto;html=1;entryX=0;entryY=0.5;entryDx=0;entryDy=0;" parent="1" source="JBVnBcPW6TnzyfwFk8pA-10" target="JBVnBcPW6TnzyfwFk8pA-46" edge="1">
          <mxGeometry relative="1" as="geometry" />
        </mxCell>
        <mxCell id="JBVnBcPW6TnzyfwFk8pA-10" value="Mechanics: Jonas Jary" style="rounded=1;whiteSpace=wrap;html=1;" parent="1" vertex="1">
          <mxGeometry x="1240.06" y="1800" width="120" height="60" as="geometry" />
        </mxCell>
        <mxCell id="JBVnBcPW6TnzyfwFk8pA-49" style="edgeStyle=orthogonalEdgeStyle;rounded=0;orthogonalLoop=1;jettySize=auto;html=1;entryX=0;entryY=0.5;entryDx=0;entryDy=0;" parent="1" source="JBVnBcPW6TnzyfwFk8pA-11" target="JBVnBcPW6TnzyfwFk8pA-46" edge="1">
          <mxGeometry relative="1" as="geometry" />
        </mxCell>
        <mxCell id="JBVnBcPW6TnzyfwFk8pA-11" value="Software: Natani Simak" style="rounded=1;whiteSpace=wrap;html=1;" parent="1" vertex="1">
          <mxGeometry x="1240.06" y="1720" width="120" height="60" as="geometry" />
        </mxCell>
        <mxCell id="JBVnBcPW6TnzyfwFk8pA-48" style="edgeStyle=orthogonalEdgeStyle;rounded=0;orthogonalLoop=1;jettySize=auto;html=1;entryX=0;entryY=0.5;entryDx=0;entryDy=0;" parent="1" source="JBVnBcPW6TnzyfwFk8pA-12" target="JBVnBcPW6TnzyfwFk8pA-46" edge="1">
          <mxGeometry relative="1" as="geometry" />
        </mxCell>
        <mxCell id="JBVnBcPW6TnzyfwFk8pA-12" value="PCB: Savva Popov" style="rounded=1;whiteSpace=wrap;html=1;" parent="1" vertex="1">
          <mxGeometry x="1240.06" y="1640" width="120" height="60" as="geometry" />
        </mxCell>
        <mxCell id="JBVnBcPW6TnzyfwFk8pA-51" style="edgeStyle=orthogonalEdgeStyle;rounded=0;orthogonalLoop=1;jettySize=auto;html=1;entryX=0;entryY=0.5;entryDx=0;entryDy=0;" parent="1" source="JBVnBcPW6TnzyfwFk8pA-19" target="JBVnBcPW6TnzyfwFk8pA-46" edge="1">
          <mxGeometry relative="1" as="geometry" />
        </mxCell>
        <mxCell id="JBVnBcPW6TnzyfwFk8pA-19" value="Overseers: Doc Krivka, Bc. Happy" style="rounded=1;whiteSpace=wrap;html=1;" parent="1" vertex="1">
          <mxGeometry x="1240.06" y="1960" width="120" height="60" as="geometry" />
        </mxCell>
        <mxCell id="JBVnBcPW6TnzyfwFk8pA-38" style="edgeStyle=orthogonalEdgeStyle;rounded=0;orthogonalLoop=1;jettySize=auto;html=1;entryX=0;entryY=0.5;entryDx=0;entryDy=0;" parent="1" source="JBVnBcPW6TnzyfwFk8pA-20" target="JBVnBcPW6TnzyfwFk8pA-36" edge="1">
          <mxGeometry relative="1" as="geometry" />
        </mxCell>
        <mxCell id="JBVnBcPW6TnzyfwFk8pA-20" value="B E A N S" style="rounded=1;whiteSpace=wrap;html=1;" parent="1" vertex="1">
          <mxGeometry x="1240.06" y="2200" width="120" height="60" as="geometry" />
        </mxCell>
        <mxCell id="JBVnBcPW6TnzyfwFk8pA-40" style="edgeStyle=orthogonalEdgeStyle;rounded=0;orthogonalLoop=1;jettySize=auto;html=1;entryX=0;entryY=0.5;entryDx=0;entryDy=0;" parent="1" source="JBVnBcPW6TnzyfwFk8pA-21" target="JBVnBcPW6TnzyfwFk8pA-36" edge="1">
          <mxGeometry relative="1" as="geometry" />
        </mxCell>
        <mxCell id="JBVnBcPW6TnzyfwFk8pA-21" value="Nya~" style="rounded=1;whiteSpace=wrap;html=1;" parent="1" vertex="1">
          <mxGeometry x="1240.06" y="2360" width="120" height="60" as="geometry" />
        </mxCell>
        <mxCell id="JBVnBcPW6TnzyfwFk8pA-37" style="edgeStyle=orthogonalEdgeStyle;rounded=0;orthogonalLoop=1;jettySize=auto;html=1;entryX=0;entryY=0.5;entryDx=0;entryDy=0;" parent="1" source="JBVnBcPW6TnzyfwFk8pA-22" target="JBVnBcPW6TnzyfwFk8pA-36" edge="1">
          <mxGeometry relative="1" as="geometry" />
        </mxCell>
        <mxCell id="JBVnBcPW6TnzyfwFk8pA-22" value="twitch.tv/catman167" style="rounded=1;whiteSpace=wrap;html=1;" parent="1" vertex="1">
          <mxGeometry x="1240.06" y="2120" width="120" height="60" as="geometry" />
        </mxCell>
        <mxCell id="JBVnBcPW6TnzyfwFk8pA-39" style="edgeStyle=orthogonalEdgeStyle;rounded=0;orthogonalLoop=1;jettySize=auto;html=1;entryX=0;entryY=0.5;entryDx=0;entryDy=0;" parent="1" source="JBVnBcPW6TnzyfwFk8pA-23" target="JBVnBcPW6TnzyfwFk8pA-36" edge="1">
          <mxGeometry relative="1" as="geometry" />
        </mxCell>
        <mxCell id="JBVnBcPW6TnzyfwFk8pA-23" value="TransRightsAreHumanRights" style="rounded=1;whiteSpace=wrap;html=1;" parent="1" vertex="1">
          <mxGeometry x="1240.06" y="2280" width="120" height="60" as="geometry" />
        </mxCell>
        <mxCell id="JBVnBcPW6TnzyfwFk8pA-41" style="edgeStyle=orthogonalEdgeStyle;rounded=0;orthogonalLoop=1;jettySize=auto;html=1;entryX=0;entryY=0.5;entryDx=0;entryDy=0;" parent="1" source="JBVnBcPW6TnzyfwFk8pA-24" target="JBVnBcPW6TnzyfwFk8pA-36" edge="1">
          <mxGeometry relative="1" as="geometry" />
        </mxCell>
        <mxCell id="JBVnBcPW6TnzyfwFk8pA-24" value="Global na hrad" style="rounded=1;whiteSpace=wrap;html=1;" parent="1" vertex="1">
          <mxGeometry x="1240.06" y="2440" width="120" height="60" as="geometry" />
        </mxCell>
        <mxCell id="JBVnBcPW6TnzyfwFk8pA-25" value="State == 92" style="text;html=1;align=center;verticalAlign=middle;whiteSpace=wrap;rounded=0;" parent="1" vertex="1">
          <mxGeometry x="1080.06" y="2070" width="120" height="30" as="geometry" />
        </mxCell>
        <mxCell id="JBVnBcPW6TnzyfwFk8pA-35" value="pick random" style="text;html=1;align=center;verticalAlign=middle;whiteSpace=wrap;rounded=0;" parent="1" vertex="1">
          <mxGeometry x="1140.06" y="2100" width="90" height="30" as="geometry" />
        </mxCell>
        <mxCell id="JBVnBcPW6TnzyfwFk8pA-42" style="edgeStyle=orthogonalEdgeStyle;rounded=0;orthogonalLoop=1;jettySize=auto;html=1;entryX=1;entryY=0.5;entryDx=0;entryDy=0;exitX=0.5;exitY=0;exitDx=0;exitDy=0;" parent="1" source="JBVnBcPW6TnzyfwFk8pA-36" target="JBVnBcPW6TnzyfwFk8pA-3" edge="1">
          <mxGeometry relative="1" as="geometry">
            <mxPoint x="1450.06" y="2120" as="sourcePoint" />
          </mxGeometry>
        </mxCell>
        <mxCell id="JBVnBcPW6TnzyfwFk8pA-36" value="Keep image for 30s(pm. 10s)" style="rounded=1;whiteSpace=wrap;html=1;" parent="1" vertex="1">
          <mxGeometry x="1400.06" y="2120" width="120" height="60" as="geometry" />
        </mxCell>
        <mxCell id="JBVnBcPW6TnzyfwFk8pA-47" style="edgeStyle=orthogonalEdgeStyle;rounded=0;orthogonalLoop=1;jettySize=auto;html=1;entryX=1;entryY=0;entryDx=0;entryDy=0;" parent="1" source="JBVnBcPW6TnzyfwFk8pA-46" target="JBVnBcPW6TnzyfwFk8pA-9" edge="1">
          <mxGeometry relative="1" as="geometry">
            <Array as="points">
              <mxPoint x="1460.06" y="1590" />
            </Array>
          </mxGeometry>
        </mxCell>
        <mxCell id="JBVnBcPW6TnzyfwFk8pA-46" value="Keep image for 30s(pm. 10s)" style="rounded=1;whiteSpace=wrap;html=1;" parent="1" vertex="1">
          <mxGeometry x="1400.06" y="1640" width="120" height="60" as="geometry" />
        </mxCell>
        <mxCell id="JBVnBcPW6TnzyfwFk8pA-52" value="1" style="text;html=1;strokeColor=none;fillColor=none;align=center;verticalAlign=middle;whiteSpace=wrap;rounded=0;" parent="1" vertex="1">
          <mxGeometry x="1140.06" y="1640" width="60" height="30" as="geometry" />
        </mxCell>
        <mxCell id="JBVnBcPW6TnzyfwFk8pA-53" value="2" style="text;html=1;strokeColor=none;fillColor=none;align=center;verticalAlign=middle;whiteSpace=wrap;rounded=0;" parent="1" vertex="1">
          <mxGeometry x="1140.06" y="1720" width="60" height="30" as="geometry" />
        </mxCell>
        <mxCell id="JBVnBcPW6TnzyfwFk8pA-54" value="3" style="text;html=1;strokeColor=none;fillColor=none;align=center;verticalAlign=middle;whiteSpace=wrap;rounded=0;" parent="1" vertex="1">
          <mxGeometry x="1140.06" y="1800" width="60" height="30" as="geometry" />
        </mxCell>
        <mxCell id="JBVnBcPW6TnzyfwFk8pA-55" value="5" style="text;html=1;strokeColor=none;fillColor=none;align=center;verticalAlign=middle;whiteSpace=wrap;rounded=0;" parent="1" vertex="1">
          <mxGeometry x="1140.06" y="1960" width="60" height="30" as="geometry" />
        </mxCell>
        <mxCell id="JBVnBcPW6TnzyfwFk8pA-56" value="Cycle" style="text;html=1;align=center;verticalAlign=middle;whiteSpace=wrap;rounded=0;" parent="1" vertex="1">
          <mxGeometry x="1140.06" y="1620" width="60" height="30" as="geometry" />
        </mxCell>
        <mxCell id="JBVnBcPW6TnzyfwFk8pA-57" value="1" style="text;html=1;strokeColor=none;fillColor=none;align=center;verticalAlign=middle;whiteSpace=wrap;rounded=0;" parent="1" vertex="1">
          <mxGeometry x="1140.06" y="2120" width="60" height="30" as="geometry" />
        </mxCell>
        <mxCell id="JBVnBcPW6TnzyfwFk8pA-58" value="2" style="text;html=1;strokeColor=none;fillColor=none;align=center;verticalAlign=middle;whiteSpace=wrap;rounded=0;" parent="1" vertex="1">
          <mxGeometry x="1140.06" y="2200" width="60" height="30" as="geometry" />
        </mxCell>
        <mxCell id="JBVnBcPW6TnzyfwFk8pA-59" value="3" style="text;html=1;strokeColor=none;fillColor=none;align=center;verticalAlign=middle;whiteSpace=wrap;rounded=0;" parent="1" vertex="1">
          <mxGeometry x="1140.06" y="2280" width="60" height="30" as="geometry" />
        </mxCell>
        <mxCell id="JBVnBcPW6TnzyfwFk8pA-60" value="4" style="text;html=1;strokeColor=none;fillColor=none;align=center;verticalAlign=middle;whiteSpace=wrap;rounded=0;" parent="1" vertex="1">
          <mxGeometry x="1140.06" y="2360" width="60" height="30" as="geometry" />
        </mxCell>
        <mxCell id="JBVnBcPW6TnzyfwFk8pA-61" value="5" style="text;html=1;strokeColor=none;fillColor=none;align=center;verticalAlign=middle;whiteSpace=wrap;rounded=0;" parent="1" vertex="1">
          <mxGeometry x="1140.06" y="2440" width="60" height="30" as="geometry" />
        </mxCell>
        <mxCell id="JBVnBcPW6TnzyfwFk8pA-62" value="Btn 1" style="text;html=1;strokeColor=none;fillColor=none;align=center;verticalAlign=middle;whiteSpace=wrap;rounded=0;" parent="1" vertex="1">
          <mxGeometry x="980.06" y="1560" width="60" height="30" as="geometry" />
        </mxCell>
        <mxCell id="JBVnBcPW6TnzyfwFk8pA-63" value="Btn 2" style="text;html=1;strokeColor=none;fillColor=none;align=center;verticalAlign=middle;whiteSpace=wrap;rounded=0;" parent="1" vertex="1">
          <mxGeometry x="980.06" y="2040" width="60" height="30" as="geometry" />
        </mxCell>
        <mxCell id="JBVnBcPW6TnzyfwFk8pA-64" value="State == 93" style="text;html=1;align=center;verticalAlign=middle;whiteSpace=wrap;rounded=0;" parent="1" vertex="1">
          <mxGeometry x="1080.06" y="2550" width="120" height="30" as="geometry" />
        </mxCell>
        <mxCell id="JBVnBcPW6TnzyfwFk8pA-66" value="Btn 3" style="text;html=1;strokeColor=none;fillColor=none;align=center;verticalAlign=middle;whiteSpace=wrap;rounded=0;" parent="1" vertex="1">
          <mxGeometry x="980.06" y="2520" width="60" height="30" as="geometry" />
        </mxCell>
        <mxCell id="JBVnBcPW6TnzyfwFk8pA-68" value="Btn 4" style="text;html=1;strokeColor=none;fillColor=none;align=center;verticalAlign=middle;whiteSpace=wrap;rounded=0;" parent="1" vertex="1">
          <mxGeometry x="1040" y="1440" width="60" height="30" as="geometry" />
        </mxCell>
        <mxCell id="JBVnBcPW6TnzyfwFk8pA-72" value="Btn 4" style="text;html=1;strokeColor=none;fillColor=none;align=center;verticalAlign=middle;whiteSpace=wrap;rounded=0;" parent="1" vertex="1">
          <mxGeometry x="1080.06" y="1510" width="60" height="30" as="geometry" />
        </mxCell>
        <mxCell id="JBVnBcPW6TnzyfwFk8pA-73" value="Btn 4" style="text;html=1;strokeColor=none;fillColor=none;align=center;verticalAlign=middle;whiteSpace=wrap;rounded=0;" parent="1" vertex="1">
          <mxGeometry x="1080.06" y="1990" width="60" height="30" as="geometry" />
        </mxCell>
        <mxCell id="JBVnBcPW6TnzyfwFk8pA-74" value="Btn 4" style="text;html=1;strokeColor=none;fillColor=none;align=center;verticalAlign=middle;whiteSpace=wrap;rounded=0;" parent="1" vertex="1">
          <mxGeometry x="1080.06" y="2470" width="60" height="30" as="geometry" />
        </mxCell>
        <mxCell id="ByofIi6FFgAuHkfWKIo7-4" style="edgeStyle=orthogonalEdgeStyle;rounded=0;orthogonalLoop=1;jettySize=auto;html=1;entryX=0;entryY=0.5;entryDx=0;entryDy=0;" edge="1" parent="1" source="ByofIi6FFgAuHkfWKIo7-2" target="JBVnBcPW6TnzyfwFk8pA-46">
          <mxGeometry relative="1" as="geometry" />
        </mxCell>
        <mxCell id="ByofIi6FFgAuHkfWKIo7-2" value="Mechanics: Filip Kadlec" style="rounded=1;whiteSpace=wrap;html=1;" vertex="1" parent="1">
          <mxGeometry x="1240.06" y="1880" width="120" height="60" as="geometry" />
        </mxCell>
        <mxCell id="ByofIi6FFgAuHkfWKIo7-3" value="4" style="text;html=1;strokeColor=none;fillColor=none;align=center;verticalAlign=middle;whiteSpace=wrap;rounded=0;" vertex="1" parent="1">
          <mxGeometry x="1140.06" y="1880" width="60" height="30" as="geometry" />
        </mxCell>
        <mxCell id="ByofIi6FFgAuHkfWKIo7-5" style="edgeStyle=orthogonalEdgeStyle;rounded=0;orthogonalLoop=1;jettySize=auto;html=1;entryX=0;entryY=0.5;entryDx=0;entryDy=0;exitX=0;exitY=0;exitDx=0;exitDy=0;" edge="1" parent="1" source="JBVnBcPW6TnzyfwFk8pA-56" target="ByofIi6FFgAuHkfWKIo7-2">
          <mxGeometry relative="1" as="geometry">
            <mxPoint x="1020" y="1770" as="sourcePoint" />
            <mxPoint x="1120" y="1820" as="targetPoint" />
            <Array as="points">
              <mxPoint x="1140" y="1910" />
            </Array>
          </mxGeometry>
        </mxCell>
      </root>
    </mxGraphModel>
  </diagram>
</mxfile>
